<svg width="168" height="277" viewBox="0 0 168 277" fill="none" xmlns="http://www.w3.org/2000/svg">
<path d="M50.2891 75.4399V4.49681V0L72.4786 22.1882V75.4399L154.432 157.388H132.243L50.2891 75.4399Z" fill="#C06014"/>
<path d="M13.583 92.5126V21.5696V17.0728L35.7953 39.2609V92.5126L117.833 174.461H95.6204L13.583 92.5126Z" fill="#424642"/>
<path d="M15.125 217.956V213.276C17.92 214.316 21.0791 214.836 24.6021 214.836C28.8792 214.836 31.0177 213.406 31.0177 210.546C31.0177 208.466 29.7047 207.426 27.0787 207.426H22.7106C17.0035 207.426 14.15 204.826 14.15 199.626C14.15 193.906 18.2125 191.046 26.3377 191.046C29.4577 191.046 32.4153 191.501 35.2103 192.411V197.091C32.4153 196.051 29.4577 195.531 26.3377 195.531C21.6576 195.531 19.3175 196.896 19.3175 199.626C19.3175 201.706 20.4486 202.746 22.7106 202.746H27.0787C33.1498 202.746 36.1853 205.346 36.1853 210.546C36.1853 216.396 32.3243 219.321 24.6021 219.321C21.0791 219.321 17.92 218.866 15.125 217.956ZM45.253 191.241V195.336H40.0854V191.241H45.253ZM45.253 198.651V219.126H40.0854V198.651H45.253ZM63.2518 203.292C62.4068 202.98 61.2043 202.824 59.6442 202.824C56.0692 202.824 54.2816 204.793 54.2816 208.732C54.2816 212.541 55.8222 214.446 58.9032 214.446C60.3852 214.446 61.8348 214.095 63.2518 213.393V203.292ZM68.4194 217.566C68.4194 223.546 64.8248 226.536 57.6357 226.536C55.1136 226.536 52.8776 226.211 50.9276 225.561V221.466C52.9166 222.116 55.1657 222.441 57.6747 222.441C61.3928 222.441 63.2518 220.881 63.2518 217.761C61.7178 218.411 60.0667 218.736 58.2987 218.736C52.2146 218.736 49.1726 215.414 49.1726 208.771C49.1726 202.024 52.7151 198.651 59.8002 198.651C62.1793 198.651 65.0523 198.93 68.4194 199.489V217.566ZM73.314 219.126V198.651H77.3115L77.955 201.654C79.9181 199.652 82.1541 198.651 84.6631 198.651C89.5122 198.651 91.9368 201.173 91.9368 206.217V219.126H86.7692V206.217C86.7692 203.955 85.6447 202.824 83.3956 202.824C81.7186 202.824 80.0806 203.493 78.4815 204.832V219.126H73.314ZM97.3189 219.126V191.241H109.799C115.493 191.241 118.34 193.86 118.34 199.099C118.34 204.78 114.447 208.219 106.66 209.415L105.918 204.813C110.599 203.968 112.939 202.115 112.939 199.255C112.939 196.941 111.782 195.784 109.468 195.784H102.486V219.126H97.3189ZM121.285 219.126V198.651H125.282L125.926 201.264C127.72 199.522 129.618 198.651 131.62 198.651V202.824C129.696 202.824 127.973 203.623 126.452 205.222V219.126H121.285ZM138.738 208.81C138.738 213.087 140.395 215.226 143.71 215.226C147.025 215.226 148.683 213.087 148.683 208.81C148.683 204.637 147.025 202.551 143.71 202.551C140.395 202.551 138.738 204.637 138.738 208.81ZM133.57 208.888C133.57 202.024 136.95 198.592 143.71 198.592C150.47 198.592 153.85 202.024 153.85 208.888C153.85 215.739 150.47 219.165 143.71 219.165C136.976 219.165 133.596 215.739 133.57 208.888ZM6.33033 264.126V236.241H11.6929L21.1506 257.398L30.4132 236.241H35.5808V264.126H30.8032V244.704L23.2371 264.126H18.83L11.1079 244.704V264.126H6.33033ZM39.9684 257.749C39.9684 253.68 42.9324 251.646 48.8605 251.646C50.2516 251.646 51.6426 251.776 53.0336 252.036V250.495C53.0336 248.662 51.7141 247.746 49.075 247.746C46.839 247.746 44.356 248.071 41.6259 248.721V244.626C44.356 243.976 46.839 243.651 49.075 243.651C55.1591 243.651 58.2012 245.9 58.2012 250.398V264.126H55.1981L53.3651 262.293C51.5841 263.515 49.6211 264.126 47.476 264.126C42.4709 264.126 39.9684 262 39.9684 257.749ZM53.0336 255.546C51.7336 255.286 50.3426 255.156 48.8605 255.156C46.3775 255.156 45.136 256.001 45.136 257.691C45.136 259.511 46.176 260.421 48.256 260.421C49.9721 260.421 51.5646 259.888 53.0336 258.822V255.546ZM63.0958 264.126V243.651H67.0933L67.7369 246.654C69.6999 244.652 71.9359 243.651 74.445 243.651C79.294 243.651 81.7186 246.173 81.7186 251.217V264.126H76.551V251.217C76.551 248.955 75.4265 247.824 73.1774 247.824C71.5004 247.824 69.8624 248.493 68.2634 249.832V264.126H63.0958ZM85.6382 257.749C85.6382 253.68 88.6022 251.646 94.5303 251.646C95.9213 251.646 97.3123 251.776 98.7034 252.036V250.495C98.7034 248.662 97.3838 247.746 94.7448 247.746C92.5088 247.746 90.0257 248.071 87.2957 248.721V244.626C90.0257 243.976 92.5088 243.651 94.7448 243.651C100.829 243.651 103.871 245.9 103.871 250.398V264.126H100.868L99.0349 262.293C97.2538 263.515 95.2908 264.126 93.1458 264.126C88.1407 264.126 85.6382 262 85.6382 257.749ZM98.7034 255.546C97.4034 255.286 96.0123 255.156 94.5303 255.156C92.0473 255.156 90.8057 256.001 90.8057 257.691C90.8057 259.511 91.8458 260.421 93.9258 260.421C95.6418 260.421 97.2343 259.888 98.7034 258.822V255.546ZM121.87 248.292C121.025 247.98 119.822 247.824 118.262 247.824C114.687 247.824 112.9 249.793 112.9 253.732C112.9 257.541 114.44 259.446 117.521 259.446C119.003 259.446 120.453 259.095 121.87 258.393V248.292ZM127.037 262.566C127.037 268.546 123.443 271.536 116.254 271.536C113.732 271.536 111.496 271.211 109.546 270.561V266.466C111.535 267.116 113.784 267.441 116.293 267.441C120.011 267.441 121.87 265.881 121.87 262.761C120.336 263.411 118.685 263.736 116.917 263.736C110.833 263.736 107.791 260.414 107.791 253.771C107.791 247.024 111.333 243.651 118.418 243.651C120.797 243.651 123.67 243.93 127.037 244.489V262.566ZM140.571 243.651C146.785 243.651 149.892 246.823 149.892 253.167C149.892 254.012 149.833 254.857 149.716 255.702H136.124C136.124 258.588 138.244 260.031 142.482 260.031C144.549 260.031 146.616 259.836 148.683 259.446V263.541C146.876 263.931 144.679 264.126 142.092 264.126C134.668 264.126 130.957 260.635 130.957 253.654C130.957 246.985 134.161 243.651 140.571 243.651ZM136.124 252.114H144.861V251.958C144.861 249.124 143.431 247.707 140.571 247.707C137.841 247.707 136.358 249.176 136.124 252.114ZM153.772 264.126V243.651H157.77L158.413 246.264C160.207 244.522 162.105 243.651 164.107 243.651V247.824C162.183 247.824 160.461 248.623 158.94 250.222V264.126H153.772Z" fill="#536162"/>
</svg>
