<svg width="271" height="105" viewBox="0 0 271 105" fill="none" xmlns="http://www.w3.org/2000/svg">
<path d="M21.9082 45.027V2.68396V0L35.1523 13.2432V45.027L84.067 93.9387H70.8229L21.9082 45.027Z" fill="#C06014"/>
<path d="M0 55.2169V12.8739V10.1899L13.2576 23.4332V55.2169L62.2225 104.129H48.9648L0 55.2169Z" fill="#424642"/>
<path d="M63.8812 41.3956V36.3525C66.8931 37.4732 70.2972 38.0335 74.0935 38.0335C78.7024 38.0335 81.0068 36.4926 81.0068 33.4107C81.0068 31.1693 79.5919 30.0486 76.7622 30.0486H72.0553C65.9055 30.0486 62.8306 27.2469 62.8306 21.6434C62.8306 15.4796 67.2083 12.3977 75.9637 12.3977C79.3258 12.3977 82.5127 12.888 85.5246 13.8686V18.9117C82.5127 17.791 79.3258 17.2307 75.9637 17.2307C70.9206 17.2307 68.399 18.7016 68.399 21.6434C68.399 23.8848 69.6178 25.0055 72.0553 25.0055H76.7622C83.3042 25.0055 86.5752 27.8072 86.5752 33.4107C86.5752 39.7146 82.4147 42.8665 74.0935 42.8665C70.2972 42.8665 66.8931 42.3762 63.8812 41.3956Z" fill="#536162"/>
<path d="M96.3463 12.6078V17.0206H90.7778V12.6078H96.3463ZM96.3463 20.5928V42.6564H90.7778V20.5928H96.3463Z" fill="#536162"/>
<path d="M115.741 25.5939C114.831 25.2577 113.535 25.0895 111.854 25.0895C108.001 25.0895 106.075 27.2119 106.075 31.4565C106.075 35.561 107.735 37.6133 111.055 37.6133C112.652 37.6133 114.214 37.2351 115.741 36.4786V25.5939ZM121.31 40.9754C121.31 47.4193 117.436 50.6413 109.69 50.6413C106.972 50.6413 104.562 50.2911 102.461 49.5907V45.178C104.604 45.8784 107.028 46.2286 109.732 46.2286C113.738 46.2286 115.741 44.5476 115.741 41.1855C114.088 41.8859 112.309 42.2361 110.404 42.2361C103.848 42.2361 100.57 38.6569 100.57 31.4985C100.57 24.228 104.387 20.5928 112.022 20.5928C114.586 20.5928 117.681 20.894 121.31 21.4963V40.9754Z" fill="#536162"/>
<path d="M126.584 42.6564V20.5928H130.892L131.585 23.8288C133.7 21.6714 136.11 20.5928 138.814 20.5928C144.039 20.5928 146.651 23.3104 146.651 28.7458V42.6564H141.083V28.7458C141.083 26.3083 139.871 25.0895 137.448 25.0895C135.641 25.0895 133.875 25.811 132.152 27.2539V42.6564H126.584Z" fill="#536162"/>
<path d="M152.451 42.6564V12.6078H165.899C172.035 12.6078 175.103 15.4306 175.103 21.0761C175.103 27.1979 170.907 30.9031 162.516 32.1919L161.718 27.2329C166.761 26.3223 169.282 24.3261 169.282 21.2442C169.282 18.7506 168.036 17.5039 165.542 17.5039H158.019V42.6564H152.451Z" fill="#536162"/>
<path d="M178.276 42.6564V20.5928H182.584L183.277 23.4085C185.21 21.5313 187.255 20.5928 189.413 20.5928V25.0895C187.34 25.0895 185.483 25.9511 183.844 27.6741V42.6564H178.276Z" fill="#536162"/>
<path d="M197.083 31.5405C197.083 36.1494 198.869 38.4538 202.441 38.4538C206.013 38.4538 207.799 36.1494 207.799 31.5405C207.799 27.0438 206.013 24.7954 202.441 24.7954C198.869 24.7954 197.083 27.0438 197.083 31.5405ZM191.514 31.6246C191.514 24.228 195.156 20.5297 202.441 20.5297C209.725 20.5297 213.368 24.228 213.368 31.6246C213.368 39.0071 209.725 42.6984 202.441 42.6984C195.184 42.6984 191.542 39.0071 191.514 31.6246Z" fill="#536162"/>
<path d="M100.984 90.8552V60.8066H106.763L116.954 83.6057L126.935 60.8066H132.503V90.8552H127.355V69.9262L119.202 90.8552H114.453L106.132 69.9262V90.8552H100.984Z" fill="#536162"/>
<path d="M137.231 83.9839C137.231 79.5992 140.425 77.4068 146.813 77.4068C148.312 77.4068 149.811 77.5469 151.31 77.8271V76.1671C151.31 74.1919 149.888 73.2042 147.044 73.2042C144.635 73.2042 141.959 73.5545 139.017 74.2549V69.8422C141.959 69.1417 144.635 68.7915 147.044 68.7915C153.601 68.7915 156.879 71.215 156.879 76.062V90.8552H153.643L151.667 88.8799C149.748 90.1967 147.633 90.8552 145.321 90.8552C139.928 90.8552 137.231 88.5647 137.231 83.9839ZM151.31 81.6094C149.909 81.3293 148.41 81.1892 146.813 81.1892C144.138 81.1892 142.8 82.0997 142.8 83.9209C142.8 85.8821 143.921 86.8627 146.162 86.8627C148.011 86.8627 149.727 86.2883 151.31 85.1396V81.6094Z" fill="#536162"/>
<path d="M162.153 90.8552V68.7915H166.46L167.154 72.0275C169.269 69.8702 171.679 68.7915 174.382 68.7915C179.608 68.7915 182.22 71.5092 182.22 76.9446V90.8552H176.652V76.9446C176.652 74.507 175.44 73.2883 173.017 73.2883C171.209 73.2883 169.444 74.0097 167.721 75.4526V90.8552H162.153Z" fill="#536162"/>
<path d="M186.444 83.9839C186.444 79.5992 189.638 77.4068 196.026 77.4068C197.525 77.4068 199.024 77.5469 200.522 77.8271V76.1671C200.522 74.1919 199.101 73.2042 196.257 73.2042C193.847 73.2042 191.172 73.5545 188.23 74.2549V69.8422C191.172 69.1417 193.847 68.7915 196.257 68.7915C202.813 68.7915 206.091 71.215 206.091 76.062V90.8552H202.855L200.88 88.8799C198.961 90.1967 196.845 90.8552 194.534 90.8552C189.14 90.8552 186.444 88.5647 186.444 83.9839ZM200.522 81.6094C199.122 81.3293 197.623 81.1892 196.026 81.1892C193.35 81.1892 192.012 82.0997 192.012 83.9209C192.012 85.8821 193.133 86.8627 195.374 86.8627C197.223 86.8627 198.94 86.2883 200.522 85.1396V81.6094Z" fill="#536162"/>
<path d="M225.486 73.7926C224.575 73.4564 223.28 73.2883 221.599 73.2883C217.746 73.2883 215.82 75.4106 215.82 79.6552C215.82 83.7598 217.48 85.812 220.8 85.812C222.397 85.812 223.959 85.4338 225.486 84.6773V73.7926ZM231.054 89.1741C231.054 95.6181 227.181 98.8401 219.434 98.8401C216.717 98.8401 214.307 98.4899 212.206 97.7894V93.3767C214.349 94.0771 216.773 94.4274 219.476 94.4274C223.483 94.4274 225.486 92.7463 225.486 89.3842C223.833 90.0847 222.054 90.4349 220.149 90.4349C213.593 90.4349 210.315 86.8557 210.315 79.6973C210.315 72.4268 214.132 68.7915 221.767 68.7915C224.33 68.7915 227.426 69.0927 231.054 69.6951V89.1741Z" fill="#536162"/>
<path d="M245.637 68.7915C252.334 68.7915 255.682 72.2096 255.682 79.0459C255.682 79.9564 255.619 80.867 255.492 81.7775H240.846C240.846 84.8875 243.13 86.4424 247.697 86.4424C249.924 86.4424 252.151 86.2323 254.379 85.812V90.2248C252.432 90.645 250.064 90.8552 247.276 90.8552C239.277 90.8552 235.278 87.0938 235.278 79.5712C235.278 72.3847 238.731 68.7915 245.637 68.7915ZM240.846 77.9112H250.26V77.743C250.26 74.6892 248.719 73.1622 245.637 73.1622C242.696 73.1622 241.099 74.7452 240.846 77.9112Z" fill="#536162"/>
<path d="M259.863 90.8552V68.7915H264.171L264.864 71.6073C266.797 69.7301 268.843 68.7915 271 68.7915V73.2883C268.927 73.2883 267.071 74.1498 265.432 75.8729V90.8552H259.863Z" fill="#536162"/>
</svg>
